<svg width="39" height="39" viewBox="0 0 39 39" version="1.1" xmlns="http://www.w3.org/2000/svg">
  <path transform="translate(-0.32134398,-0.05071392)" style="fill:none;stroke:white;stroke-width:1.70000005;stroke-miterlimit:4;stroke-opacity:1" d="m 31.728813,20.65678 a 11.567797,11.567797 0 1 1 -23.1355932,0 11.567797,11.567797 0 1 1 23.1355932,0 z"/>
  <path style="fill:none;stroke:white;stroke-width:1px;stroke-linecap:butt;stroke-linejoin:miter;stroke-opacity:1" d="m 8.2718763,20.275557 22.9703387,0 z"/>
  <path style="fill:none;stroke:white;stroke-width:1px;stroke-linecap:butt;stroke-linejoin:miter;stroke-opacity:1" d="m 26.780351,30.025557 -7.023305,-9.75 -6.527543,9.254237"/>
  <path style="fill:#000000;fill-opacity:1;stroke:white;stroke-width:1.70000005;stroke-linecap:butt;stroke-linejoin:miter;stroke-miterlimit:4;stroke-opacity:1" d="m 22.805085,20.326271 a 2.7266948,2.8093219 0 1 1 -5.45339,0 2.7266948,2.8093219 0 1 1 5.45339,0 z" transform="matrix(0.93465901,0,0,0.93465901,0.99059792,1.2774248)"/>
  <path style="fill:none;stroke:white;stroke-width:3.29999995;stroke-linecap:round;stroke-linejoin:round;stroke-miterlimit:4;stroke-opacity:1;marker-start:none" d="m 19.777267,7.7496975 0,-5.9158789 z"/>
  <path style="fill:none;stroke:white;stroke-width:3.29999995;stroke-linecap:round;stroke-linejoin:miter;stroke-miterlimit:4;stroke-opacity:1" d="m 27.606969,30.887062 5.257175,6.191994"/>
  <path style="fill:none;stroke:white;stroke-width:3.29999995;stroke-linecap:round;stroke-linejoin:miter;stroke-miterlimit:4;stroke-opacity:1" d="M 12.122844,30.945489 6.8656691,37.137483"/>
</svg>
