<svg xmlns="http://www.w3.org/2000/svg" style="display: none;">
  <symbol id="corpus" viewBox="0 0 256 256">
    <path d=" M 114.57 16.78 C 139.12 13.81 164.63 19.14 185.77 32.01 C 208.29 45.50 225.77 67.16 234.13 92.04 C 242.98 118.13 241.83 147.51 230.72 172.74 C 219.74 198.17 198.91 219.16 173.58 230.35 C 150.99 240.51 124.98 242.69 100.97 236.73 C 77.15 230.91 55.48 216.89 40.27 197.68 C 23.74 177.05 15.01 150.39 16.06 123.98 C 16.91 96.21 28.67 68.96 48.30 49.30 C 65.86 31.36 89.64 19.68 114.57 16.78 M 73.52 49.44 C 53.19 63.47 38.62 85.63 34.09 109.94 C 30.02 131.03 33.27 153.45 43.31 172.45 C 70.40 125.68 97.79 79.08 124.94 32.34 C 106.64 33.08 88.52 38.87 73.52 49.44 M 131.01 32.37 C 158.46 78.67 185.88 125.00 213.29 171.33 C 222.38 153.46 225.60 132.71 222.43 112.92 C 219.27 92.44 209.06 73.18 194.06 58.91 C 177.26 42.67 154.35 33.11 131.01 32.37 M 120.14 87.19 C 104.52 90.06 91.28 102.63 87.64 118.10 C 84.48 130.54 87.63 144.31 95.77 154.21 C 103.49 163.79 115.65 169.63 127.97 169.55 C 138.86 169.63 149.67 165.10 157.35 157.39 C 165.33 149.48 169.89 138.21 169.54 126.96 C 169.32 114.99 163.53 103.29 154.21 95.78 C 144.85 88.08 132.04 84.83 120.14 87.19 M 46.35 177.79 C 57.57 196.11 75.04 210.56 95.27 217.86 C 115.92 225.43 139.21 225.53 159.92 218.15 C 180.49 210.95 198.28 196.35 209.65 177.79 C 155.22 177.80 100.78 177.80 46.35 177.79 Z" />
  </symbol>
  <symbol>
    <path d=" M 66.83 8.07 C 111.18 7.97 155.55 7.92 199.90 8.10 C 200.13 79.72 199.94 151.37 200.00 223.00 C 199.91 228.63 200.18 234.27 199.90 239.90 C 155.56 240.06 111.19 240.06 66.85 239.90 C 67.63 238.70 68.49 237.55 69.40 236.45 C 96.09 205.13 122.71 173.74 149.37 142.39 C 152.65 138.37 156.30 134.64 159.35 130.44 C 160.31 129.44 158.98 128.38 158.50 127.55 C 128.53 88.81 98.76 49.92 68.83 11.15 C 68.10 10.16 67.44 9.13 66.83 8.07 Z" />
    <path d=" M 56.25 86.36 C 76.39 86.40 96.54 86.36 116.68 86.38 C 116.98 94.45 116.96 102.57 116.70 110.65 C 109.43 110.91 102.13 110.30 94.88 110.88 C 94.52 120.27 94.52 129.72 94.87 139.12 C 102.13 139.70 109.43 139.09 116.70 139.35 C 116.96 146.77 116.97 154.23 116.70 161.65 C 96.54 161.69 76.38 161.66 56.23 161.67 C 55.69 141.13 56.16 120.55 56.00 100.00 C 56.08 95.45 55.73 90.88 56.25 86.36 Z" />
  </symbol>
  <symbol>
    <path d=" M 64.62 9.38 C 72.61 24.81 84.04 37.95 94.47 51.71 C 90.26 54.44 86.03 57.16 81.78 59.85 C 83.11 57.94 84.45 56.04 85.79 54.13 C 79.28 47.76 72.92 41.21 65.97 35.31 C 66.05 46.38 68.95 57.39 74.68 66.88 C 67.62 65.34 60.27 65.34 53.17 66.61 C 58.61 57.12 63.23 46.92 62.11 35.62 C 54.77 41.51 47.81 47.87 41.04 54.40 C 43.06 56.66 45.07 58.93 47.02 61.26 C 42.09 58.09 37.23 54.83 32.62 51.22 C 44.42 38.21 56.20 24.91 64.62 9.38 Z" />
    <path d=" M 85.76 68.66 C 90.36 66.63 95.02 64.76 99.70 62.92 C 106.40 79.01 112.91 95.34 122.81 109.82 C 105.16 108.29 87.53 110.29 69.99 112.09 C 70.02 107.30 70.03 102.52 70.12 97.74 C 70.51 99.22 71.29 102.20 71.68 103.69 C 80.57 101.77 89.46 99.82 98.28 97.61 C 88.66 91.69 77.41 89.28 66.24 88.83 C 70.62 83.53 75.22 78.06 76.96 71.24 C 82.81 80.55 89.88 89.82 100.12 94.54 C 98.08 85.71 95.41 77.04 93.00 68.31 C 90.59 68.43 88.17 68.55 85.76 68.66 Z" />
    <path d=" M 27.47 63.78 C 32.47 65.53 37.40 67.52 42.29 69.59 C 39.62 69.43 36.99 69.29 34.33 69.12 C 32.19 77.81 29.72 86.41 27.86 95.17 C 37.69 89.66 45.06 81.03 50.39 71.22 C 51.89 78.23 56.37 84.16 61.77 88.71 C 50.50 89.03 39.53 92.35 29.59 97.57 C 38.30 100.13 47.21 101.96 56.08 103.89 C 56.64 101.83 57.21 99.78 57.78 97.72 C 57.87 102.55 57.97 107.38 58.03 112.22 C 40.44 110.99 22.83 109.01 5.18 110.74 C 14.86 96.25 21.12 79.90 27.47 63.78 Z" />
    <path d=" M 54.08 69.93 C 60.31 69.56 66.57 69.40 72.81 69.82 C 72.40 76.36 68.86 82.00 63.91 86.06 C 59.36 81.60 55.38 76.30 54.08 69.93 Z" />
  </symbol>
  <symbol>
    <path d=" M 55.77 16.81 C 57.94 11.52 59.70 6.01 60.13 0.27 C 60.67 5.91 62.28 11.37 64.51 16.56 C 66.68 11.38 68.37 5.97 68.84 0.35 C 69.35 6.09 71.03 11.63 73.28 16.92 C 92.16 20.33 108.04 35.99 111.35 54.94 C 116.62 57.24 122.17 59.01 127.94 59.41 C 122.36 60.03 116.93 61.59 111.78 63.80 C 116.96 65.94 122.35 67.67 127.95 68.18 C 122.33 68.74 116.71 70.09 111.68 72.69 C 109.55 79.68 107.16 86.78 102.51 92.57 C 95.58 102.06 84.88 108.08 73.61 110.83 C 70.71 115.73 69.55 121.56 68.87 127.18 C 68.33 121.63 66.68 116.26 64.52 111.14 C 62.31 116.24 60.65 121.60 60.14 127.16 C 59.66 121.43 57.88 115.91 55.61 110.66 C 40.95 107.89 27.90 97.94 21.54 84.42 C 19.58 80.72 18.83 76.56 17.36 72.67 C 12.23 70.04 6.49 68.67 0.75 68.21 C 6.45 67.74 11.95 66.04 17.18 63.78 C 12.01 61.61 6.58 59.94 0.96 59.48 C 6.76 59.03 12.35 57.22 17.66 54.89 C 20.20 41.75 28.38 29.74 39.97 22.95 C 44.83 19.99 50.26 18.14 55.77 16.81 M 57.72 20.63 C 59.36 20.63 61.00 20.63 62.65 20.62 C 61.78 18.38 60.96 16.12 60.18 13.84 C 59.39 16.12 58.57 18.38 57.72 20.63 M 68.84 13.80 C 68.06 16.09 67.24 18.37 66.38 20.63 C 68.01 20.63 69.64 20.63 71.27 20.63 C 70.43 18.37 69.61 16.09 68.84 13.80 M 21.35 53.26 C 22.31 52.70 24.25 51.59 25.22 51.03 C 24.49 55.31 24.70 59.64 25.04 63.94 C 24.63 68.16 24.56 72.41 25.21 76.61 C 23.94 75.86 22.66 75.12 21.38 74.39 C 25.26 90.18 38.24 103.11 54.03 106.98 C 53.25 105.68 52.46 104.39 51.68 103.10 C 57.46 104.28 63.30 102.76 69.09 103.57 C 71.85 103.75 74.60 103.41 77.34 103.12 C 76.57 104.40 75.81 105.69 75.05 106.98 C 90.84 103.04 103.72 90.12 107.68 74.34 C 106.38 75.11 105.08 75.88 103.78 76.66 C 104.47 72.41 104.36 68.12 103.93 63.86 C 104.34 59.58 104.50 55.26 103.77 51.00 C 105.06 51.76 106.36 52.51 107.65 53.27 C 103.76 37.51 90.86 24.54 75.09 20.67 C 75.63 21.63 76.71 23.55 77.25 24.51 C 72.89 23.76 68.50 24.11 64.13 24.38 C 60.01 23.93 55.85 23.88 51.76 24.55 C 52.49 23.26 53.22 21.96 53.94 20.66 C 38.15 24.53 25.30 37.52 21.35 53.26 M 14.31 59.50 C 16.67 60.23 19.00 61.05 21.31 61.93 C 21.30 60.29 21.29 58.65 21.28 57.01 C 18.98 57.88 16.66 58.74 14.31 59.50 M 107.68 57.00 C 107.69 58.66 107.70 60.32 107.71 61.98 C 109.99 61.08 112.28 60.21 114.59 59.42 C 112.27 58.66 109.97 57.85 107.68 57.00 M 14.23 68.16 C 16.62 68.91 19.00 69.73 21.35 70.59 C 21.30 68.97 21.26 67.34 21.21 65.72 C 18.90 66.57 16.57 67.39 14.23 68.16 M 107.68 65.71 C 107.69 67.35 107.69 68.99 107.69 70.63 C 109.99 69.76 112.30 68.92 114.63 68.12 C 112.30 67.37 109.98 66.56 107.68 65.71 M 57.68 107.00 C 58.54 109.27 59.38 111.54 60.19 113.83 C 60.98 111.54 61.80 109.27 62.65 107.02 C 60.99 107.01 59.34 107.01 57.68 107.00 M 66.36 107.01 C 67.21 109.27 68.04 111.55 68.81 113.85 C 69.60 111.55 70.45 109.27 71.32 107.00 C 69.66 107.01 68.01 107.01 66.36 107.01 Z" />
    <path d=" M 63.42 38.98 C 63.95 36.31 62.87 33.13 64.99 30.97 C 65.32 33.60 65.25 36.27 65.59 38.89 C 67.17 43.23 70.71 46.64 72.06 51.07 C 71.32 54.52 69.15 57.45 67.72 60.63 C 70.84 59.14 73.77 57.11 77.14 56.19 C 81.06 57.39 84.17 60.31 87.84 62.09 C 90.74 63.88 94.64 61.87 97.37 64.18 C 93.95 65.06 90.08 63.93 87.00 65.98 C 83.67 67.68 80.80 70.47 77.11 71.35 C 73.72 70.62 70.87 68.40 67.71 67.05 C 68.88 70.92 73.73 74.85 71.10 79.05 C 69.39 82.30 67.00 85.19 65.60 88.61 C 65.18 91.26 65.33 93.96 65.04 96.62 C 62.58 94.48 64.22 90.96 63.28 88.24 C 61.57 84.29 58.50 81.07 57.03 77.01 C 57.18 73.36 60.01 70.40 61.28 67.06 C 58.15 68.42 55.31 70.59 51.93 71.31 C 46.54 70.26 42.83 64.45 37.03 64.71 C 35.37 64.33 32.58 65.45 32.08 63.05 C 34.59 62.93 37.12 63.13 39.61 62.74 C 43.91 60.91 47.61 57.92 51.85 55.93 C 55.03 57.41 58.18 58.99 61.32 60.57 C 59.83 57.43 57.63 54.51 56.95 51.05 C 58.22 46.63 61.78 43.27 63.42 38.98 M 64.35 40.46 C 62.83 43.50 61.11 46.43 59.36 49.34 C 61.10 51.05 62.91 52.69 64.74 54.29 C 65.17 52.49 66.76 51.68 68.26 50.86 C 67.07 50.84 64.68 50.80 63.48 50.78 C 65.77 50.24 68.08 49.80 70.34 49.15 C 68.06 48.92 65.78 48.81 63.50 48.62 C 65.47 48.27 67.45 47.99 69.43 47.62 C 67.55 47.05 65.59 46.89 63.64 46.75 C 65.14 46.25 66.63 45.73 68.12 45.18 C 66.96 45.03 64.64 44.74 63.48 44.59 C 64.23 44.44 65.72 44.14 66.47 43.99 C 65.73 42.83 65.04 41.65 64.35 40.46 M 61.52 59.90 C 62.44 60.78 63.37 61.66 64.30 62.53 C 65.20 61.67 66.11 60.80 67.02 59.93 C 66.10 59.01 65.18 58.09 64.27 57.17 C 63.35 58.08 62.43 58.99 61.52 59.90 M 41.20 63.80 C 42.31 64.27 43.41 64.74 44.51 65.21 C 46.67 66.27 48.69 67.59 50.53 69.13 C 50.52 68.44 50.50 67.05 50.49 66.35 C 51.05 66.41 52.18 66.54 52.75 66.60 C 52.65 66.10 52.46 65.10 52.36 64.60 C 53.08 64.49 54.50 64.26 55.21 64.15 C 53.53 62.30 51.81 60.49 50.07 58.69 C 47.10 60.37 44.14 62.08 41.20 63.80 M 73.83 64.21 C 74.53 64.30 75.94 64.48 76.64 64.57 C 76.54 65.08 76.34 66.08 76.24 66.58 C 76.80 66.53 77.93 66.43 78.49 66.38 C 78.49 67.06 78.48 68.41 78.47 69.09 C 79.91 67.97 81.46 67.01 83.10 66.22 C 83.16 66.06 83.28 65.76 83.34 65.61 C 84.84 65.00 86.34 64.42 87.84 63.85 C 84.87 62.10 81.87 60.39 78.90 58.64 C 77.20 60.48 75.50 62.33 73.83 64.21 M 60.31 61.09 C 59.39 62.00 58.46 62.91 57.54 63.82 C 58.44 64.72 59.34 65.62 60.24 66.52 C 61.13 65.60 62.03 64.67 62.93 63.75 C 62.05 62.86 61.18 61.98 60.31 61.09 M 65.76 63.86 C 66.68 64.79 67.60 65.72 68.53 66.65 C 69.46 65.71 70.39 64.76 71.32 63.82 C 70.39 62.89 69.46 61.95 68.53 61.02 C 67.61 61.97 66.68 62.92 65.76 63.86 M 64.31 64.99 C 63.38 65.91 62.46 66.83 61.53 67.76 C 62.44 68.65 63.34 69.55 64.25 70.44 C 65.18 69.53 66.11 68.63 67.04 67.72 C 66.13 66.81 65.22 65.90 64.31 64.99 M 62.83 73.90 C 63.31 74.29 64.26 75.07 64.73 75.46 C 63.31 75.74 61.90 76.04 60.49 76.35 C 62.05 76.73 63.62 77.11 65.18 77.50 C 63.04 77.66 60.91 77.86 58.77 78.09 C 60.81 79.25 63.14 79.57 65.41 79.96 C 64.02 80.10 61.24 80.38 59.85 80.52 C 61.60 80.98 63.35 81.42 65.10 81.83 C 64.09 82.03 62.06 82.43 61.05 82.63 C 62.39 83.02 63.74 83.40 65.10 83.77 C 64.58 83.84 63.54 83.99 63.02 84.06 C 63.38 84.86 64.11 86.44 64.48 87.23 C 66.14 84.17 67.92 81.16 69.67 78.15 C 67.51 76.63 65.88 73.23 62.83 73.90 Z" />
    <path d=" M 48.46 36.47 C 52.22 38.98 52.93 43.93 55.13 47.62 C 52.77 44.00 49.75 40.68 48.46 36.47 Z" />
    <path d=" M 73.91 47.57 C 75.96 43.81 76.93 39.19 80.39 36.40 C 79.40 40.70 76.18 43.93 73.91 47.57 Z" />
    <path d=" M 37.32 47.64 C 41.16 49.14 44.39 51.79 47.77 54.08 C 44.27 52.06 39.23 51.55 37.32 47.64 Z" />
    <path d=" M 81.04 54.30 C 84.16 52.20 87.05 49.65 90.50 48.12 L 91.88 48.94 C 88.34 50.88 84.68 52.57 81.04 54.30 Z" />
    <path d=" M 79.07 74.86 C 82.62 77.19 86.63 79.00 89.43 82.30 C 85.06 81.50 82.51 77.31 79.07 74.86 Z" />
    <path d=" M 39.59 82.42 C 42.09 79.06 46.08 77.41 49.46 75.13 C 46.32 77.71 43.72 81.38 39.59 82.42 Z" />
    <path d=" M 52.72 92.56 C 51.98 88.37 55.49 85.03 57.04 81.40 C 55.87 85.21 54.76 89.10 52.72 92.56 Z" />
    <path d=" M 71.89 81.11 C 73.30 84.84 77.09 88.25 76.17 92.48 C 74.20 88.91 73.04 84.99 71.89 81.11 Z" />
  </symbol>
  <symbol>
    <path d=" M 59.72 16.50 C 61.99 11.59 63.35 6.32 64.00 0.97 C 64.69 6.31 66.00 11.58 68.26 16.48 C 89.20 18.11 107.81 35.11 110.88 55.95 C 111.32 60.97 111.25 66.03 110.99 71.06 C 108.55 90.92 91.84 107.93 72.08 110.93 C 70.70 111.45 68.43 110.84 67.82 112.59 C 65.67 117.13 64.74 122.13 64.00 127.07 C 63.37 121.70 61.99 116.42 59.72 111.51 C 36.47 109.81 15.87 88.62 16.83 64.97 C 15.80 51.42 21.94 37.93 31.85 28.85 C 39.47 21.83 49.41 17.44 59.72 16.50 M 61.51 20.81 C 63.16 20.82 64.81 20.82 66.46 20.83 C 65.69 18.72 64.93 16.61 64.16 14.51 C 63.12 16.54 62.27 18.66 61.51 20.81 M 22.88 47.77 C 17.01 62.14 19.66 79.51 29.36 91.58 C 36.39 100.52 46.94 106.40 58.17 107.99 C 57.34 106.43 56.48 104.87 55.62 103.32 C 61.15 104.04 66.76 104.07 72.29 103.31 C 71.47 104.87 70.66 106.44 69.88 108.01 C 85.69 105.85 100.05 94.70 105.38 79.55 C 110.95 65.34 108.18 48.35 98.67 36.46 C 91.65 27.51 81.09 21.64 69.87 19.98 C 70.67 21.56 71.50 23.12 72.33 24.69 C 66.78 23.97 61.16 23.96 55.62 24.71 C 56.47 23.14 57.32 21.57 58.15 19.99 C 42.58 22.13 28.38 32.95 22.88 47.77 M 61.55 107.12 C 62.25 109.31 63.07 111.46 64.17 113.49 C 64.93 111.39 65.68 109.29 66.44 107.20 C 64.81 107.18 63.18 107.15 61.55 107.12 Z" />
    <path d=" M 64.91 44.22 C 67.16 43.18 68.44 38.91 71.35 40.56 C 75.44 42.21 78.15 45.91 81.96 48.03 C 83.47 49.11 85.58 49.64 86.47 51.39 C 87.42 54.51 87.78 57.78 88.09 61.01 C 86.63 62.31 85.20 63.63 83.77 64.97 C 84.88 66.33 86.37 67.49 87.06 69.14 C 87.20 72.76 83.47 74.51 81.61 76.89 C 82.00 80.30 81.27 83.83 78.93 86.45 C 76.96 86.07 75.14 84.96 73.12 84.88 C 68.87 86.22 64.59 87.69 60.10 87.97 C 57.45 86.36 55.20 84.12 52.42 82.66 C 51.60 78.36 46.98 76.52 45.84 72.31 C 43.98 71.61 41.04 71.86 40.03 69.98 C 41.15 66.77 41.85 63.46 42.19 60.08 C 43.31 57.32 44.52 54.58 45.85 51.92 C 50.36 50.38 53.95 46.72 54.46 41.84 C 58.06 42.05 61.45 43.31 64.91 44.22 M 68.50 48.55 C 68.98 51.02 67.81 53.22 66.89 55.42 C 68.65 54.13 70.27 52.67 71.89 51.21 C 72.43 51.63 73.52 52.46 74.06 52.87 C 73.78 51.49 73.48 50.11 73.18 48.74 C 71.62 48.68 70.06 48.62 68.50 48.55 M 50.28 54.97 C 50.48 56.30 50.67 57.62 50.85 58.95 C 47.12 61.65 45.17 66.08 42.36 69.62 C 44.42 70.10 46.46 70.67 48.51 71.23 C 47.78 70.73 46.33 69.75 45.60 69.26 C 46.66 68.41 47.81 67.69 48.99 67.03 C 49.93 67.86 50.87 68.68 51.82 69.50 C 51.93 69.04 52.17 68.12 52.29 67.66 C 53.37 67.49 54.46 67.31 55.54 67.13 C 55.66 68.24 55.42 69.27 54.75 70.17 C 53.90 72.41 52.64 74.45 50.98 76.19 C 50.64 74.33 50.34 72.48 50.04 70.62 C 49.52 71.06 48.47 71.95 47.95 72.40 C 49.02 75.09 51.16 76.98 53.65 78.37 L 53.35 76.21 C 54.19 77.23 55.04 78.23 55.88 79.24 C 56.53 78.89 57.84 78.19 58.49 77.84 C 58.38 79.05 58.29 80.38 57.13 81.09 C 55.55 80.20 54.16 79.00 52.68 77.97 C 53.32 82.28 57.81 83.31 60.44 86.08 C 64.19 85.59 67.91 84.79 71.41 83.30 C 73.73 81.97 76.12 83.62 78.29 84.43 C 79.71 81.74 79.69 78.77 79.74 75.83 C 80.88 74.24 82.60 73.19 84.00 71.86 C 81.45 71.83 79.21 73.02 77.02 74.18 C 77.19 73.08 77.37 71.97 77.55 70.87 C 79.37 70.07 81.31 69.33 82.57 67.70 C 81.50 67.83 79.35 68.09 78.28 68.22 C 79.24 65.32 81.63 63.40 84.06 61.75 C 83.73 60.32 83.40 58.88 83.04 57.46 C 80.52 60.01 78.76 63.21 78.06 66.74 C 77.38 66.85 76.00 67.08 75.31 67.20 C 74.54 68.46 73.75 69.72 72.96 70.97 C 73.29 68.24 71.87 66.07 69.44 65.03 C 69.31 64.28 69.07 62.79 68.95 62.04 C 67.44 62.47 66.81 64.22 65.78 65.27 C 64.98 64.95 64.19 64.63 63.40 64.31 C 62.26 64.97 61.12 65.61 59.97 66.23 C 59.73 66.64 59.26 67.45 59.02 67.85 C 57.42 66.71 55.57 66.07 53.72 65.44 C 53.04 64.17 52.49 62.84 52.07 61.45 C 52.88 60.61 53.70 59.79 54.51 58.96 C 52.59 58.29 51.57 56.40 50.28 54.97 M 54.68 59.48 C 54.77 60.05 54.96 61.20 55.05 61.77 L 55.28 60.69 C 56.43 62.13 57.87 63.18 59.77 63.11 C 60.56 60.70 61.34 58.27 62.15 55.86 C 60.07 57.64 57.85 60.80 54.68 59.48 Z" />
    <path d=" M 63.80 68.54 C 66.09 67.80 68.51 68.34 70.85 68.43 C 71.27 69.50 71.81 70.55 71.91 71.71 C 69.62 71.37 67.32 71.34 65.07 71.95 C 65.33 72.75 65.59 73.55 65.85 74.35 C 65.37 75.40 64.89 76.46 64.42 77.52 C 63.62 78.35 62.83 79.19 62.04 80.03 C 61.01 79.02 59.93 78.08 58.80 77.18 C 61.21 76.37 61.56 73.93 61.54 71.72 C 60.86 72.86 60.19 74.01 59.54 75.18 C 58.31 73.94 56.27 72.59 57.53 70.63 C 58.12 70.06 59.31 68.91 59.91 68.34 C 59.70 69.43 59.27 71.59 59.06 72.68 C 60.59 71.26 61.78 69.33 63.80 68.54 Z" />
    <path d=" M 70.20 74.31 C 72.06 74.44 71.57 77.64 69.89 77.67 C 67.98 77.46 68.38 74.33 70.20 74.31 Z" />
  </symbol>
  <symbol>
    <path d=" M 59.84 16.93 C 61.84 12.20 63.21 7.22 64.00 2.15 C 64.77 7.22 66.27 12.14 68.11 16.92 C 83.87 18.38 98.69 27.92 106.02 42.02 C 113.28 55.09 113.26 71.35 107.32 84.92 C 110.81 89.00 114.35 93.11 118.84 96.14 C 113.83 93.90 108.46 92.67 103.05 91.92 C 94.31 104.41 79.35 112.49 64.01 112.04 C 48.67 112.49 33.71 104.40 24.95 91.92 C 19.46 92.68 14.01 93.94 8.96 96.27 C 13.58 93.18 17.30 89.01 20.75 84.70 C 14.99 72.20 14.80 57.19 20.66 44.70 C 27.49 29.24 43.08 18.44 59.84 16.93 M 61.52 21.33 C 63.17 21.33 64.81 21.33 66.46 21.34 C 65.62 19.10 64.81 16.85 64.03 14.58 C 63.24 16.85 62.39 19.09 61.52 21.33 M 25.84 41.96 C 18.69 53.68 17.87 68.69 22.89 81.38 C 23.92 79.93 24.87 78.42 25.83 76.93 C 27.86 82.15 30.69 87.03 34.18 91.41 C 32.37 91.44 30.55 91.48 28.73 91.52 C 37.10 102.24 50.40 109.04 64.07 108.87 C 77.70 109.00 90.92 102.19 99.28 91.52 C 97.46 91.48 95.65 91.44 93.83 91.42 C 97.19 86.94 100.21 82.17 102.18 76.91 C 103.14 78.28 103.68 80.12 105.19 81.03 C 110.54 67.75 109.01 51.86 100.93 40.00 C 93.99 29.35 82.23 22.16 69.66 20.49 C 70.59 22.09 71.54 23.67 72.48 25.26 C 66.86 24.47 61.15 24.48 55.53 25.26 C 56.46 23.67 57.41 22.08 58.34 20.49 C 44.99 22.25 32.61 30.28 25.84 41.96 M 25.30 84.03 C 23.82 85.88 22.32 87.70 20.80 89.51 C 23.15 89.07 25.51 88.65 27.87 88.25 C 27.01 86.85 26.14 85.44 25.30 84.03 M 100.11 88.26 C 102.48 88.65 104.84 89.07 107.20 89.50 C 105.68 87.70 104.18 85.87 102.70 84.02 C 101.86 85.45 100.97 86.85 100.11 88.26 Z" />
    <path d=" M 53.85 43.72 C 56.52 41.23 60.53 41.36 63.95 41.20 C 68.41 40.94 74.29 41.83 76.13 46.55 C 77.56 47.31 78.45 48.45 78.24 50.16 C 78.80 50.18 79.92 50.22 80.48 50.25 C 82.45 52.36 84.87 54.18 86.24 56.77 C 86.99 59.76 86.32 62.89 86.74 65.93 C 86.80 68.23 87.83 71.06 85.85 72.87 C 81.97 77.20 77.44 80.89 73.50 85.17 C 67.49 88.28 60.37 87.53 54.15 85.40 C 54.00 85.01 53.70 84.24 53.55 83.85 C 51.91 82.61 50.55 81.06 49.21 79.50 C 49.08 78.92 48.82 77.77 48.70 77.19 C 48.08 77.18 46.84 77.16 46.22 77.14 C 44.43 75.18 42.17 73.49 41.02 71.04 C 40.84 68.37 41.49 65.72 41.40 63.04 C 41.52 60.73 40.96 58.20 42.10 56.06 C 45.41 51.38 50.53 48.38 53.85 43.72 M 55.17 44.08 C 55.10 47.63 57.63 50.22 59.12 53.19 C 58.23 49.97 57.91 46.38 55.17 44.08 M 68.89 51.48 C 69.99 50.22 71.00 48.90 72.03 47.58 C 72.05 46.64 72.11 44.77 72.13 43.83 C 70.35 46.05 69.22 48.65 68.89 51.48 M 45.46 56.46 C 45.55 56.54 45.55 56.54 45.46 56.46 M 52.84 64.29 C 53.70 68.26 57.68 69.87 60.43 72.32 C 57.56 71.23 54.33 70.56 52.12 68.26 C 49.87 69.52 46.40 70.02 45.62 72.85 C 49.47 74.73 51.90 78.21 54.66 81.33 C 56.52 80.08 57.83 78.23 59.20 76.49 C 58.76 78.62 58.31 80.75 57.94 82.90 C 61.97 83.03 66.01 83.22 70.04 82.90 C 69.54 80.68 69.00 78.47 68.58 76.24 C 70.14 78.14 71.48 80.20 72.88 82.22 C 73.27 81.60 74.06 80.36 74.45 79.74 C 77.26 77.08 79.72 74.07 83.03 71.96 C 80.97 70.29 78.61 69.09 76.11 68.24 C 73.48 70.00 70.62 71.39 67.63 72.41 C 70.21 69.70 74.70 68.29 75.20 64.12 C 72.96 62.01 71.01 59.61 68.71 57.56 C 69.68 59.39 70.83 61.11 71.81 62.93 C 70.93 65.39 67.65 65.45 65.90 67.11 C 67.14 66.69 69.64 65.84 70.89 65.42 C 69.17 67.55 68.05 70.31 65.72 71.88 C 62.90 73.23 60.77 70.37 58.81 68.89 C 61.73 69.76 64.80 70.18 67.81 69.56 C 63.80 69.51 59.18 69.34 56.66 65.66 C 58.40 66.04 60.14 66.42 61.89 66.80 C 60.19 65.97 58.45 65.21 56.77 64.35 C 55.60 61.91 58.57 59.83 59.23 57.59 C 56.93 59.66 54.99 62.07 52.84 64.29 M 43.91 58.49 C 44.62 62.26 44.02 66.09 44.23 69.89 C 45.36 69.51 46.49 69.12 47.61 68.72 C 48.98 66.93 52.01 66.00 50.48 63.28 C 50.83 62.98 51.53 62.38 51.88 62.08 C 49.09 61.21 46.11 60.56 43.91 58.49 M 76.31 62.04 C 77.76 63.06 77.38 64.58 77.02 66.03 C 79.41 67.30 81.19 69.56 84.00 69.95 C 84.37 66.14 84.21 62.32 83.93 58.52 C 81.81 60.47 79.02 61.27 76.31 62.04 Z" />
    <path d=" M 59.44 74.58 C 62.32 73.21 65.67 73.22 68.56 74.57 C 65.57 75.35 62.43 75.35 59.44 74.58 Z" />
  </symbol>
  <symbol>
    <path d=" M 59.75 16.11 C 61.93 11.19 63.35 5.97 64.00 0.62 C 64.64 5.94 66.07 11.14 68.22 16.05 C 81.00 17.31 93.20 23.71 101.19 33.81 C 107.16 41.11 110.64 50.26 111.54 59.62 C 116.35 61.75 121.43 63.14 126.61 64.01 C 121.41 64.84 116.33 66.31 111.49 68.39 C 110.08 81.44 103.23 93.80 92.71 101.68 C 85.73 107.05 77.19 110.05 68.51 111.17 C 66.30 116.29 64.69 121.66 63.99 127.21 C 63.30 121.67 61.71 116.29 59.49 111.17 C 46.05 109.69 33.26 102.66 25.39 91.56 C 20.44 84.79 17.52 76.69 16.51 68.40 C 11.48 66.24 6.21 64.68 0.78 64.00 C 6.19 63.31 11.47 61.82 16.46 59.62 C 17.58 46.70 24.09 34.33 34.33 26.34 C 41.53 20.45 50.54 17.05 59.75 16.11 M 61.55 20.44 C 63.18 20.44 64.81 20.44 66.45 20.44 C 65.59 18.16 64.77 15.86 64.00 13.54 C 63.23 15.86 62.41 18.16 61.55 20.44 M 37.88 27.85 C 28.05 34.88 21.64 46.12 19.91 58.02 C 21.40 57.22 22.88 56.41 24.36 55.59 C 23.59 61.19 23.61 66.87 24.35 72.48 C 22.91 71.62 21.46 70.76 20.01 69.91 C 21.24 76.78 23.70 83.50 27.81 89.18 C 34.71 99.11 45.87 105.77 57.80 107.52 C 57.05 106.23 56.29 104.94 55.53 103.65 C 61.14 104.40 66.83 104.40 72.44 103.65 C 71.69 104.94 70.95 106.23 70.22 107.53 C 89.34 105.06 105.31 88.94 107.99 69.91 C 106.54 70.76 105.09 71.62 103.65 72.48 C 104.39 66.87 104.41 61.19 103.64 55.59 C 105.12 56.41 106.60 57.22 108.09 58.02 C 106.86 50.34 104.00 42.88 99.20 36.72 C 92.14 27.34 81.24 21.21 69.66 19.56 C 70.58 21.16 71.52 22.76 72.46 24.35 C 66.84 23.60 61.16 23.60 55.54 24.35 C 56.48 22.76 57.42 21.16 58.35 19.56 C 51.03 20.78 43.84 23.35 37.88 27.85 M 13.54 64.00 C 15.86 64.77 18.16 65.59 20.44 66.45 C 20.44 64.81 20.44 63.18 20.44 61.55 C 18.16 62.41 15.86 63.22 13.54 64.00 M 107.56 61.55 C 107.56 63.18 107.56 64.82 107.56 66.45 C 109.84 65.59 112.14 64.77 114.46 64.00 C 112.14 63.22 109.84 62.41 107.56 61.55 M 61.55 107.56 C 62.41 109.83 63.22 112.13 64.00 114.44 C 64.78 112.13 65.59 109.84 66.45 107.56 C 64.81 107.56 63.18 107.56 61.55 107.56 Z" />
    <path d=" M 52.11 52.11 C 56.07 47.83 60.84 44.23 64.00 39.26 C 68.24 45.47 74.32 50.10 79.39 55.60 C 82.20 58.39 84.79 61.51 88.27 63.53 C 82.64 68.10 77.89 73.62 72.66 78.62 C 69.69 81.61 66.55 84.46 64.00 87.84 C 60.56 83.37 56.26 79.70 52.36 75.65 C 48.16 71.60 44.32 67.15 39.73 63.53 C 44.56 60.56 47.97 55.90 52.11 52.11 M 63.95 41.45 C 63.81 43.40 63.75 45.34 63.72 47.29 C 62.50 49.13 61.20 50.92 59.85 52.67 C 61.21 51.86 62.62 51.16 64.08 50.57 C 65.47 51.20 66.81 51.92 68.10 52.76 C 64.76 49.84 63.92 45.68 63.95 41.45 M 63.04 58.70 C 64.72 60.97 66.79 62.93 69.00 64.67 L 70.28 63.94 C 68.85 60.98 65.99 59.09 63.72 56.83 C 63.55 57.29 63.21 58.23 63.04 58.70 M 47.17 59.71 C 45.79 61.12 44.40 62.53 43.01 63.93 C 45.86 66.73 48.69 69.54 51.48 72.40 C 53.35 71.76 55.23 71.17 57.13 70.62 C 54.97 68.83 52.93 66.92 50.94 64.95 C 51.38 64.07 51.81 63.19 52.24 62.31 C 50.42 61.72 48.65 60.96 47.17 59.71 M 59.83 60.62 C 61.83 62.79 63.72 65.10 66.06 66.92 C 66.58 66.77 67.63 66.46 68.15 66.30 C 66.16 64.14 64.28 61.82 61.91 60.05 C 61.39 60.19 60.35 60.48 59.83 60.62 M 80.83 59.73 C 79.35 60.98 77.56 61.70 75.76 62.31 C 76.19 63.19 76.62 64.06 77.04 64.94 C 75.98 65.97 74.92 67.00 73.85 68.03 C 75.10 68.31 76.17 68.87 77.06 69.70 C 75.77 69.45 74.53 69.06 73.33 68.51 C 72.72 69.04 71.50 70.08 70.88 70.60 C 72.69 71.23 74.48 71.89 76.27 72.58 C 77.63 71.03 79.14 69.63 80.74 68.33 C 79.93 68.05 78.32 67.51 77.51 67.23 C 78.37 67.40 80.11 67.73 80.97 67.90 C 82.31 66.57 83.65 65.25 85.00 63.93 C 83.60 62.53 82.21 61.13 80.83 59.73 M 58.15 63.92 C 59.78 66.15 61.86 68.02 64.01 69.74 L 65.09 69.01 C 64.15 65.91 60.84 64.15 58.74 61.82 C 58.59 62.35 58.30 63.39 58.15 63.92 M 52.00 72.93 C 52.86 73.78 53.73 74.63 54.59 75.48 C 56.82 74.55 59.22 73.85 61.63 74.65 C 60.29 73.58 58.97 72.47 57.68 71.35 C 55.80 71.95 53.90 72.45 52.00 72.93 M 70.35 71.32 C 69.04 72.46 67.71 73.58 66.36 74.67 C 68.77 73.84 71.17 74.55 73.41 75.48 C 74.19 74.71 74.98 73.94 75.77 73.17 C 73.96 72.57 72.15 71.97 70.35 71.32 M 55.17 76.31 C 56.07 77.11 56.98 77.91 57.90 78.71 C 61.91 77.73 66.09 77.73 70.10 78.71 C 71.01 77.91 71.92 77.11 72.83 76.31 C 67.04 75.09 60.96 75.10 55.17 76.31 M 58.86 80.46 C 59.64 80.92 61.22 81.85 62.01 82.31 C 63.33 82.30 64.66 82.30 65.99 82.30 C 66.78 81.84 68.36 80.92 69.15 80.45 C 65.73 80.00 62.27 80.01 58.86 80.46 Z" />
    <path d=" M 51.36 68.79 C 54.50 67.64 51.00 72.12 51.36 68.79 Z" />
  </symbol>

  <symbol>
    <g id="svgg" transform="translate(0.14693822,-1.7142793)">
      <path id="path1" d="m 201.922,6.192 c -0.344,8.12 -6.943,33.868 -11.537,45.015 l -0.775,1.88 -4.012,0.329 C 130.376,57.944 79.975,94.185 58.313,144.94 c -0.725,1.699 -0.693,1.683 -4.146,1.969 -1.035,0.086 -2.366,0.204 -2.957,0.262 -6.24,0.619 -29.455,0.63 -30.503,0.016 -0.078,-0.046 -1.352,-0.164 -2.831,-0.262 -1.478,-0.098 -3.837,-0.34 -5.242,-0.538 -2.456,-0.347 -3.328,-0.346 -2.256,0.002 0.544,0.177 0.837,0.298 2.928,1.213 6.76,2.956 14.622,7.01 22.716,11.713 5.055,2.937 13.978,9.098 13.978,9.651 0,0.216 -0.362,2.018 -0.803,4.004 -10.951,49.224 2.669,99.645 37.161,137.571 l 2.084,2.291 -0.917,2.276 c -4.051,10.048 -9.207,20.189 -15.555,30.591 -1.63,2.672 -5.557,8.561 -5.814,8.72 -0.163,0.1 -0.296,0.299 -0.296,0.441 0,0.142 1.301,-0.805 2.89,-2.105 7.021,-5.743 25.603,-18.346 27.049,-18.346 0.099,0 0.631,-0.284 1.182,-0.631 1.893,-1.191 8.885,-4.746 9.335,-4.746 0.247,0 1.86,1.012 3.585,2.248 22.416,16.063 48.094,25.483 76.389,28.022 39.618,3.555 77.519,-6.294 107.841,-28.022 1.725,-1.236 3.338,-2.248 3.586,-2.248 0.449,0 7.441,3.555 9.334,4.746 0.552,0.347 1.083,0.631 1.182,0.631 1.446,0 20.029,12.603 27.049,18.346 1.59,1.3 2.89,2.247 2.89,2.105 0,-0.142 -0.133,-0.341 -0.295,-0.441 -0.257,-0.159 -4.184,-6.048 -5.815,-8.72 -6.347,-10.402 -11.504,-20.543 -15.555,-30.591 l -0.917,-2.276 2.084,-2.291 c 34.492,-37.926 48.112,-88.347 37.162,-137.571 -0.442,-1.986 -0.804,-3.788 -0.804,-4.004 0,-0.553 8.923,-6.714 13.979,-9.651 8.094,-4.703 15.955,-8.757 22.715,-11.713 2.092,-0.915 2.384,-1.036 2.928,-1.213 1.072,-0.348 0.2,-0.349 -2.256,-0.002 -1.405,0.198 -3.764,0.44 -5.242,0.538 -1.479,0.098 -2.752,0.216 -2.831,0.262 -1.048,0.614 -24.263,0.603 -30.502,-0.016 -0.592,-0.058 -1.922,-0.176 -2.957,-0.262 -3.454,-0.286 -3.421,-0.27 -4.146,-1.969 C 324.058,94.185 273.656,57.944 218.434,53.416 l -4.012,-0.329 -0.774,-1.88 C 208.953,39.816 203.677,19.251 202.061,6.048 201.969,5.297 201.96,5.306 201.922,6.192 m 2.105,42.464 c 2.782,8.446 5.546,15.656 6.775,17.675 0.743,1.219 0.481,1.271 -4.55,0.894 -3.215,-0.241 -5.209,-0.241 -8.446,-10e-4 -5.063,0.376 -5.318,0.326 -4.576,-0.893 1.219,-2.002 4,-9.248 6.679,-17.406 0.802,-2.44 1.513,-4.596 1.58,-4.792 0.394,-1.147 1.062,0.041 2.538,4.523 M 183.44,66.331 c -2.427,4.53 -5.473,9.437 -8.094,13.037 -0.511,0.703 -0.88,1.277 -0.819,1.277 0.06,0 1.008,-0.309 2.106,-0.686 11.949,-4.108 38.817,-4.108 50.766,0 1.098,0.377 2.039,0.686 2.091,0.686 0.053,0 -0.57,-0.937 -1.382,-2.083 -2.785,-3.925 -9.218,-14.746 -8.935,-15.028 0.035,-0.036 1.799,0.167 3.92,0.45 39.54,5.277 74.633,26.697 97.697,59.632 3.931,5.614 9.48,15.073 11.4,19.431 l 0.548,1.247 -1.543,-0.36 c -0.848,-0.198 -1.834,-0.418 -2.189,-0.489 -0.355,-0.071 -2.158,-0.562 -4.006,-1.09 -1.848,-0.528 -3.542,-1.009 -3.763,-1.069 -0.695,-0.188 -4.396,-1.543 -5.283,-1.934 -1.395,-0.615 -1.508,-0.438 -0.579,0.903 1.753,2.53 4.513,7.618 4.519,8.33 10e-4,0.113 0.178,0.544 0.394,0.958 0.216,0.414 0.512,1.14 0.656,1.613 0.145,0.473 0.574,1.707 0.953,2.742 2.718,7.409 4.527,13.97 5.521,20.027 0.134,0.813 0.378,2.204 0.543,3.091 0.839,4.521 1.032,6.686 0.965,10.854 l -0.071,4.403 0.558,-0.774 c 2.12,-2.937 12.382,-13.554 13.872,-14.351 0.392,-0.21 0.528,0.245 1.153,3.847 6.834,39.403 -2.802,79.884 -26.535,111.473 -2.966,3.948 -6.165,7.777 -6.384,7.642 -0.545,-0.337 -3.008,-12.283 -3.592,-17.425 l -0.181,-1.588 -1.317,2.358 c -1.125,2.014 -3.507,5.629 -3.994,6.061 -0.083,0.074 -1.24,1.403 -2.57,2.954 -4.775,5.565 -12.706,13.125 -17.348,16.535 -0.403,0.296 -1.865,1.397 -3.251,2.446 -4.038,3.06 -9.108,6.018 -11.793,6.881 -0.222,0.071 0.565,0.337 1.747,0.591 4.594,0.985 15.634,4.282 16.186,4.834 0.484,0.484 -11.553,7.635 -18.874,11.213 -20.734,10.135 -39.279,14.224 -64.516,14.224 -25.236,0 -43.782,-4.089 -64.516,-14.224 -7.321,-3.578 -19.357,-10.729 -18.874,-11.213 0.552,-0.552 11.592,-3.849 16.186,-4.834 1.183,-0.254 1.969,-0.52 1.747,-0.591 -2.684,-0.863 -7.754,-3.821 -11.793,-6.881 -1.385,-1.049 -2.848,-2.15 -3.251,-2.446 -4.641,-3.41 -12.573,-10.97 -17.348,-16.535 -1.33,-1.551 -2.486,-2.88 -2.57,-2.954 -0.487,-0.432 -2.869,-4.047 -3.994,-6.061 l -1.317,-2.358 -0.181,1.588 c -0.584,5.142 -3.047,17.088 -3.592,17.425 -0.219,0.135 -3.418,-3.694 -6.383,-7.642 -23.734,-31.589 -33.37,-72.07 -26.536,-111.473 0.625,-3.602 0.762,-4.057 1.153,-3.847 1.49,0.797 11.752,11.414 13.872,14.351 l 0.559,0.774 -0.071,-4.403 c -0.068,-4.168 0.125,-6.333 0.964,-10.854 0.165,-0.887 0.409,-2.278 0.543,-3.091 0.995,-6.057 2.803,-12.618 5.521,-20.027 0.379,-1.035 0.808,-2.269 0.953,-2.742 0.145,-0.473 0.44,-1.199 0.656,-1.613 0.216,-0.414 0.393,-0.845 0.394,-0.958 0.006,-0.712 2.766,-5.8 4.519,-8.33 0.93,-1.341 0.816,-1.518 -0.579,-0.903 -0.887,0.391 -4.588,1.746 -5.282,1.934 -0.222,0.06 -1.916,0.541 -3.764,1.069 -1.848,0.528 -3.651,1.019 -4.006,1.09 -0.355,0.071 -1.34,0.291 -2.189,0.489 l -1.543,0.36 0.549,-1.247 c 7.39,-16.78 23.433,-36.697 40.388,-50.137 20.021,-15.87 48.758,-27.555 72.4,-29.441 0.213,-0.017 -0.266,1.134 -1.191,2.862 m 61.528,22.095 c -2.383,1.472 -3.775,6.649 -6.257,23.268 -2.768,18.539 -3.529,21.318 -6.973,25.483 -4.637,5.609 -7.5,5.998 -17.491,2.375 -2.667,-0.968 -3.542,-6.145 -2.455,-14.539 1.823,-14.086 -3.464,-22.036 -6.55,-9.849 -0.581,2.297 -0.8,3.804 -1.471,10.139 -0.474,4.484 -2.254,8.952 -4.999,12.552 l -1.368,1.794 -3.392,0.32 c -3.74,0.354 -8.648,1.176 -11.744,1.966 -2.436,0.622 -2.119,1.099 -2.426,-3.654 -0.464,-7.183 -1.742,-10.059 -4.507,-10.137 -2.354,-0.067 -3.561,4.388 -3.561,13.14 v 4.066 l -1.916,0.847 c -2.376,1.049 -2.283,1.056 -2.48,-0.181 -0.289,-1.802 -2.31,-7.784 -4.879,-14.437 -3.233,-8.373 -3.564,-9.494 -3.912,-13.249 -0.446,-4.818 -0.942,-5.72 -2.893,-5.257 -2.186,0.519 -2.218,0.741 -2.467,16.9 -0.222,14.454 -0.475,18.159 -1.619,23.65 -0.933,4.48 -1.03,4.671 -3.626,7.153 -2.965,2.833 -6.595,6.897 -8.491,9.504 -1.697,2.333 -1.711,2.339 -2.304,1.024 -0.708,-1.571 -0.587,-5.178 0.303,-9.073 1.637,-7.159 0.66,-11.906 -2.631,-12.792 -3.812,-1.027 -4.985,3.769 -4.673,19.109 0.206,10.155 -0.149,17.769 -0.918,19.674 -0.318,0.786 -1.036,2.817 -1.597,4.514 -1.432,4.329 -1.663,4.279 -2.132,-0.462 -0.684,-6.904 -1.447,-8.646 -3.374,-7.708 -4.71,2.292 -5.211,16.359 -1.096,30.778 1.541,5.398 3.448,13.072 4.471,17.989 6.21,29.847 31.002,53.99 61.132,59.532 47.762,8.786 90.535,-24.139 93.45,-71.933 0.214,-3.508 0.41,-5.06 0.679,-5.359 1.064,-1.19 2.011,-5.552 2.671,-12.303 0.847,-8.679 1.529,-12.506 2.987,-16.771 1.525,-4.458 1.256,-6.328 -0.997,-6.935 -2.636,-0.71 -3.736,1.77 -5.742,12.94 -0.521,2.901 -1.058,5.562 -1.194,5.914 -0.288,0.749 -0.173,1.021 -1.5,-3.526 -1.648,-5.645 -4.347,-11.918 -7.21,-16.757 l -1.088,-1.838 0.332,-4.479 c 0.183,-2.464 0.566,-6.294 0.852,-8.512 1.236,-9.592 1.419,-18.557 0.386,-18.95 -1.865,-0.71 -2.737,1.381 -4.948,11.864 -1.071,5.082 -1.679,6.756 -2.947,8.118 -1.365,1.466 -1.376,1.462 -4.108,-1.337 -1.383,-1.419 -3.999,-3.846 -5.812,-5.394 -6.999,-5.978 -9.273,-11.811 -9.256,-23.736 0.011,-7.036 0.635,-11.648 4.752,-35.081 1.451,-8.259 0.254,-12.381 -3.011,-10.364 m -38.92,59.302 c 12.333,2.113 18.549,6.658 18.549,13.562 0,11.804 -22.537,17.53 -38.295,9.729 -7.322,-3.625 -9.306,-11.294 -4.262,-16.483 4.776,-4.914 16.184,-8.148 24.008,-6.808 m -134.112,5.608 c 0.165,0.427 -0.085,1.338 -1.112,4.056 -0.908,2.404 -2.122,6.95 -2.547,9.543 -0.727,4.434 -0.82,4.556 -2.397,3.159 -2.697,-2.39 -7.307,-5.709 -14.469,-10.415 -6.089,-4.002 -6.113,-4.144 -0.739,-4.426 1.922,-0.1 3.797,-0.225 4.167,-0.277 0.369,-0.052 2.063,-0.179 3.763,-0.282 1.7,-0.102 3.309,-0.227 3.575,-0.277 0.265,-0.049 1.415,-0.169 2.553,-0.266 1.139,-0.097 2.132,-0.212 2.205,-0.256 0.074,-0.043 0.754,-0.157 1.51,-0.253 0.756,-0.096 1.723,-0.279 2.15,-0.407 1.099,-0.329 1.179,-0.323 1.341,0.101 m 261.801,-0.011 c 0.295,0.079 1.082,0.215 1.747,0.304 0.665,0.089 1.391,0.209 1.613,0.267 0.222,0.058 1.29,0.182 2.374,0.275 1.084,0.093 2.173,0.207 2.419,0.253 0.247,0.046 1.84,0.168 3.54,0.27 1.7,0.103 3.394,0.23 3.764,0.282 0.369,0.052 2.244,0.177 4.166,0.277 5.374,0.282 5.35,0.424 -0.739,4.426 -7.162,4.706 -11.772,8.025 -14.469,10.415 -1.577,1.397 -1.67,1.275 -2.397,-3.159 -0.425,-2.593 -1.639,-7.139 -2.546,-9.543 -1.387,-3.67 -1.493,-4.622 -0.482,-4.34 0.26,0.072 0.714,0.195 1.01,0.273 m -168.268,7.024 c 4.756,6.643 3.837,9.064 -5.926,15.599 -9.897,6.625 -13.172,6.891 -13.172,1.068 0,-5.262 5.173,-11.547 15.028,-18.258 2.133,-1.454 1.794,-1.586 4.07,1.591 m 80.23,0.63 c 7.973,5.976 11.962,11.324 11.962,16.037 0,5.823 -3.275,5.557 -13.172,-1.068 -9.963,-6.669 -10.765,-9.04 -5.485,-16.214 l 1.64,-2.229 0.982,0.578 c 0.54,0.319 2.373,1.622 4.073,2.896 m -76.082,24.724 c 2.673,1.979 2.567,5.608 -0.301,10.281 -2.74,4.465 -3.472,6.063 -4.015,8.758 -1.189,5.912 -3.225,7.405 -5.019,3.681 -1.09,-2.265 -1.584,-2.525 -5.588,-2.939 -8.062,-0.834 -9.091,-2.692 -5.642,-10.188 1.474,-3.203 3.791,-3.493 6.593,-0.825 2.414,2.298 3.596,2.025 4.573,-1.057 1.925,-6.08 6.516,-9.845 9.399,-7.711 m 68.426,-0.254 c 2.044,0.928 4.707,4.603 5.772,7.965 0.976,3.082 2.158,3.355 4.572,1.057 2.802,-2.668 5.12,-2.378 6.593,0.825 3.449,7.496 2.42,9.354 -5.642,10.188 -4.004,0.414 -4.497,0.674 -5.588,2.939 -1.794,3.724 -3.83,2.231 -5.019,-3.681 -0.542,-2.695 -1.275,-4.293 -4.015,-8.758 -2.671,-4.353 -2.957,-7.868 -0.803,-9.879 1.29,-1.205 2.499,-1.397 4.13,-0.656 m -94.886,1.501 c 1.192,1.192 0.901,2.022 -2.092,5.961 -1.841,2.424 -4.237,6.724 -4.237,7.607 0,0.76 0.944,1.778 3.318,3.576 5.074,3.843 5.149,4.062 5.547,16.202 0.54,16.474 1.121,21.506 2.668,23.11 0.575,0.596 1.305,1.603 1.623,2.239 0.726,1.451 0.964,1.536 2.593,0.928 1.629,-0.609 1.621,-0.428 0.301,-6.788 -3.628,-17.489 -3.573,-21.368 0.37,-26.152 1.062,-1.287 1.324,-1.26 2.646,0.278 2.659,3.095 4.034,7.037 4.055,11.627 0.046,10.231 2.192,12.984 7.799,10.001 1.113,-0.592 3.072,-1.396 4.355,-1.787 4.975,-1.518 5.272,-3.792 0.818,-6.272 -6.661,-3.709 -4.469,-6.668 2.472,-3.337 6.355,3.049 6.745,5.35 2.011,11.879 -8.032,11.075 -9.393,13.786 -9.393,18.702 0,6.081 1.196,7.642 6.381,8.33 l 1.386,0.183 1.584,-1.511 c 1.85,-1.764 2.065,-1.817 2.466,-0.601 1.081,3.273 5.42,8.079 10.29,11.397 3.223,2.196 3.287,2.262 4.761,4.897 1.41,2.524 2.595,3.758 4.539,4.728 3.536,1.765 7.064,0.051 9.736,-4.728 1.473,-2.635 1.537,-2.701 4.76,-4.897 4.87,-3.318 9.21,-8.124 10.29,-11.397 0.401,-1.216 0.616,-1.163 2.466,0.601 l 1.585,1.511 1.385,-0.183 c 5.186,-0.688 6.382,-2.249 6.382,-8.33 0,-4.916 -1.362,-7.627 -9.393,-18.702 -4.735,-6.529 -4.345,-8.83 2.01,-11.879 6.941,-3.331 9.133,-0.372 2.472,3.337 -4.454,2.48 -4.157,4.754 0.818,6.272 1.283,0.391 3.243,1.195 4.355,1.787 5.607,2.983 7.753,0.23 7.8,-10.001 0.021,-4.59 1.395,-8.532 4.054,-11.627 1.322,-1.538 1.585,-1.565 2.646,-0.278 3.943,4.784 3.998,8.663 0.37,26.152 -1.319,6.36 -1.327,6.179 0.302,6.788 1.628,0.608 1.867,0.523 2.592,-0.928 0.318,-0.636 1.049,-1.643 1.624,-2.239 1.546,-1.604 2.127,-6.636 2.667,-23.11 0.398,-12.14 0.473,-12.359 5.547,-16.202 2.374,-1.798 3.318,-2.816 3.318,-3.576 0,-0.883 -2.395,-5.183 -4.237,-7.607 -3.578,-4.71 -3.616,-6.621 -0.129,-6.621 3.289,0 5.1,2.179 7.299,8.783 14.087,42.303 -14.209,86.923 -58.608,92.42 -43.676,5.407 -81.153,-26.99 -81.153,-70.154 0,-10.905 3.074,-24.725 6.37,-28.642 1.951,-2.32 5.006,-3.152 6.411,-1.747 m 63.964,2.436 c 6.586,0.993 11.982,3.17 14.847,5.992 4.488,4.419 4.498,11.267 0.024,15.673 -8.201,8.074 -31.751,8.074 -39.951,0 -4.475,-4.406 -4.465,-11.254 0.023,-15.673 4.722,-4.649 16.027,-7.353 25.057,-5.992 m -2.501,43.819 c 12.574,2.614 19.389,11.479 16.742,21.779 -1.873,7.291 -9.146,11.683 -19.346,11.683 -13.782,0 -21.848,-8.155 -19.463,-19.678 1.723,-8.324 13.362,-15.594 22.067,-13.784 M 102.879,305.04 c 2.034,2.287 4.716,4.964 6.082,6.071 1.758,1.423 3.017,2.418 4.311,3.405 1.468,1.12 1.476,1.613 0.032,2.076 -0.59,0.189 -1.315,0.423 -1.61,0.52 -1.045,0.344 -12.413,6.201 -15.777,8.129 -4.645,2.663 -5.276,2.463 -3.591,-1.135 0.524,-1.121 0.954,-2.092 0.954,-2.159 0,-0.066 0.477,-1.13 1.06,-2.364 2.09,-4.423 4.802,-11.256 5.542,-13.965 0.805,-2.943 0.881,-2.957 2.997,-0.578 m 200.541,-1.478 c 0.143,0.185 0.471,1.11 0.73,2.056 0.741,2.709 3.453,9.542 5.542,13.965 0.584,1.234 1.061,2.298 1.061,2.364 0,0.067 0.429,1.038 0.954,2.159 1.685,3.598 1.053,3.798 -3.592,1.135 -3.364,-1.928 -14.731,-7.785 -15.776,-8.129 -0.296,-0.097 -1.021,-0.331 -1.611,-0.52 -1.443,-0.463 -1.436,-0.956 0.032,-2.076 1.294,-0.987 2.553,-1.982 4.311,-3.405 1.366,-1.107 4.048,-3.784 6.082,-6.071 1.703,-1.915 1.853,-2.013 2.267,-1.478"  />
    </g>
  </symbol>
  <symbol>
    <path d=" M 56.83 28.27 C 59.38 23.74 65.73 24.41 69.83 26.14 C 72.89 30.26 68.73 34.61 67.49 38.59 C 66.36 40.34 66.19 44.00 63.57 43.94 C 61.00 41.43 60.42 37.52 58.77 34.39 C 57.72 32.50 56.92 30.46 56.83 28.27 Z" />
    <path d=" M 47.79 32.77 C 48.87 31.74 50.55 32.12 51.90 31.84 C 53.82 34.75 55.53 38.31 54.86 41.88 C 53.71 45.75 49.57 47.31 47.39 50.47 C 42.88 55.60 39.24 62.87 42.16 69.66 C 44.64 74.85 48.31 79.53 53.06 82.83 C 55.51 84.45 57.08 87.12 57.87 89.90 C 57.97 93.60 58.54 97.26 58.94 100.93 C 59.36 102.25 57.62 103.96 56.63 102.44 C 50.14 96.27 42.24 91.59 36.75 84.39 C 35.86 83.61 35.30 82.06 34.01 81.94 C 31.79 83.12 29.71 84.57 27.50 85.78 C 26.24 86.14 24.99 86.53 23.74 86.92 C 22.09 86.10 20.43 85.33 18.74 84.62 C 21.54 80.69 27.01 79.92 30.97 77.42 C 30.63 74.43 28.56 71.85 27.79 68.92 C 22.22 69.83 16.59 69.99 10.96 70.23 C 7.82 70.27 3.92 72.24 1.34 69.63 C 3.32 66.26 5.14 62.06 9.48 61.34 C 15.53 60.53 21.70 61.53 27.80 61.43 C 27.94 58.84 28.83 56.40 29.99 54.11 C 25.70 53.20 20.74 52.90 17.50 49.58 C 16.29 47.54 15.81 45.18 15.01 42.97 C 21.49 42.92 27.27 46.59 33.45 48.16 C 37.24 42.22 42.53 37.40 47.79 32.77 Z" />
    <path d=" M 76.10 31.84 C 77.44 32.11 79.09 31.71 80.16 32.76 C 85.47 37.35 90.74 42.22 94.55 48.16 C 100.73 46.59 106.50 42.93 112.98 42.97 C 112.17 45.19 111.71 47.59 110.46 49.62 C 107.23 52.91 102.28 53.20 98.01 54.11 C 99.16 56.40 100.07 58.84 100.19 61.43 C 106.27 61.52 112.42 60.55 118.45 61.32 C 122.81 62.03 124.66 66.22 126.66 69.60 C 124.12 72.27 120.18 70.26 117.04 70.23 C 111.41 69.99 105.78 69.83 100.21 68.92 C 99.47 71.86 97.30 74.44 97.07 77.45 C 101.02 79.92 106.46 80.70 109.26 84.62 C 107.56 85.33 105.89 86.10 104.25 86.94 C 100.65 86.14 97.56 84.16 94.52 82.18 C 93.28 81.29 92.54 83.11 91.77 83.77 C 86.00 91.43 77.69 96.45 70.77 102.92 L 70.02 103.05 C 67.80 100.63 70.14 96.97 69.88 94.05 C 69.57 89.76 71.29 85.26 74.95 82.82 C 79.69 79.52 83.36 74.85 85.84 69.66 C 88.76 62.88 85.13 55.61 80.63 50.49 C 78.44 47.31 74.28 45.76 73.13 41.86 C 72.48 38.30 74.17 34.74 76.10 31.84 Z" />
    <path d=" M 54.03 64.46 C 57.21 62.63 60.40 60.47 64.02 59.71 C 67.72 60.41 70.76 62.93 74.22 64.33 C 74.06 65.43 73.48 66.23 72.49 66.72 C 69.70 68.15 66.92 69.63 64.02 70.83 C 60.63 69.24 57.03 67.86 54.01 65.64 C 54.02 65.34 54.03 64.75 54.03 64.46 Z" />
  </symbol>
  <symbol>
    <path d=" M 4.33 8.62 C 4.40 7.44 4.47 6.27 4.55 5.10 C 7.79 6.13 11.22 5.78 14.57 5.99 C 14.51 6.46 14.40 7.41 14.35 7.88 C 11.00 8.01 7.63 7.92 4.33 8.62 Z" />
    <path d=" M 40.18 5.27 C 42.79 5.40 45.42 5.29 48.03 5.47 C 48.02 6.08 48.00 7.29 48.00 7.90 C 45.85 9.33 42.47 8.13 39.84 8.22 C 39.93 7.48 40.09 6.01 40.18 5.27 Z" />
    <path d=" M 50.49 5.91 C 53.53 5.87 56.59 5.90 59.56 5.15 C 59.57 6.30 59.58 7.46 59.60 8.62 C 56.61 8.05 53.57 7.97 50.54 7.96 C 50.33 7.72 49.90 7.25 49.69 7.01 C 49.89 6.74 50.29 6.18 50.49 5.91 Z" />
    <path d=" M 15.90 5.46 C 18.39 5.24 20.91 5.25 23.40 5.43 C 23.52 6.18 23.76 7.68 23.89 8.44 C 21.05 8.47 18.22 8.47 15.38 8.45 C 15.51 7.70 15.77 6.21 15.90 5.46 Z" />
    <path d=" M 24.58 5.89 C 29.23 5.88 33.88 5.78 38.52 5.82 C 38.67 6.12 38.96 6.70 39.10 6.99 C 38.93 7.25 38.60 7.76 38.43 8.02 C 33.80 8.04 29.18 7.92 24.55 8.00 C 24.56 7.47 24.58 6.41 24.58 5.89 Z" />
    <path d=" M 8.87 10.65 C 24.10 12.25 39.52 12.56 54.73 10.52 C 54.88 40.53 54.74 70.54 54.79 100.55 C 52.48 102.66 50.20 104.88 47.39 106.32 C 43.26 108.57 38.49 109.20 34.28 111.27 C 29.58 113.35 25.66 116.82 20.99 118.95 C 17.15 120.82 12.92 121.60 8.83 122.72 C 8.96 85.37 8.89 48.01 8.87 10.65 M 40.69 13.14 C 40.68 13.86 40.68 15.31 40.68 16.04 C 44.84 15.65 49.01 15.34 53.17 14.98 C 53.19 14.28 53.23 12.88 53.25 12.18 C 49.11 12.95 44.89 13.14 40.69 13.14 M 10.15 12.25 C 10.25 12.89 10.46 14.16 10.56 14.80 C 14.71 15.57 18.95 15.58 23.15 15.92 C 23.15 15.26 23.16 13.94 23.17 13.28 C 18.81 13.14 14.47 12.84 10.15 12.25 M 25.80 13.36 C 25.79 14.03 25.78 15.38 25.77 16.05 C 29.87 16.13 33.97 16.13 38.07 16.04 C 37.97 15.39 37.76 14.10 37.66 13.45 C 33.71 13.33 29.75 13.55 25.80 13.36 M 27.17 42.78 C 24.82 44.20 22.47 45.59 20.12 47.00 C 18.79 46.43 17.52 45.59 16.06 45.42 C 13.43 45.70 11.16 48.26 11.68 50.94 C 11.94 52.99 14.00 53.97 15.37 55.24 C 15.37 57.96 15.35 60.68 15.23 63.40 C 12.56 64.65 10.28 67.81 12.36 70.62 C 14.02 73.53 17.75 73.17 20.08 71.32 C 22.39 72.72 24.71 74.09 27.06 75.41 C 27.13 78.08 28.07 81.42 31.18 81.83 C 34.75 82.49 36.95 78.72 36.60 75.57 C 38.95 74.11 41.34 72.72 43.75 71.36 C 44.80 71.92 45.88 72.41 46.99 72.83 C 50.28 73.30 53.35 69.34 51.71 66.33 C 51.10 64.88 49.54 64.21 48.40 63.25 C 48.36 60.51 48.37 57.77 48.47 55.03 C 51.13 53.73 53.45 50.49 51.38 47.66 C 49.71 44.78 46.04 45.27 43.73 47.03 C 41.35 45.64 38.97 44.25 36.60 42.83 C 37.03 39.60 34.63 35.75 31.01 36.57 C 28.02 37.03 27.15 40.20 27.17 42.78 Z" />
    <path d=" M 35.38 44.16 C 37.83 45.67 40.32 47.13 42.85 48.49 C 42.87 49.57 42.89 50.65 42.91 51.73 C 39.55 53.71 36.16 55.64 32.83 57.68 C 32.82 53.80 32.82 49.92 32.86 46.04 C 33.70 45.42 34.54 44.79 35.38 44.16 Z" />
    <path d=" M 20.73 48.72 C 23.23 47.20 25.74 45.72 28.26 44.24 C 29.16 44.80 30.05 45.36 30.95 45.92 C 30.93 49.81 30.94 53.70 30.96 57.60 C 27.56 55.69 24.22 53.70 20.83 51.77 C 20.81 51.01 20.75 49.48 20.73 48.72 Z" />
    <path d=" M 17.17 55.00 C 18.08 54.42 18.99 53.85 19.90 53.27 C 23.29 55.31 26.71 57.29 30.22 59.13 C 26.77 61.07 23.33 63.03 19.97 65.13 C 19.04 64.55 18.11 63.99 17.19 63.42 C 17.19 60.61 17.19 57.81 17.17 55.00 Z" />
    <path d=" M 33.64 59.14 C 37.07 57.21 40.49 55.27 43.87 53.25 C 44.55 53.68 45.91 54.53 46.59 54.96 C 46.58 57.84 46.57 60.73 46.50 63.61 C 45.81 63.98 44.43 64.72 43.74 65.10 C 40.42 63.03 37.03 61.09 33.64 59.14 Z" />
    <path d=" M 20.89 66.51 C 24.28 64.63 27.61 62.65 30.99 60.75 C 30.94 64.70 30.95 68.65 30.88 72.60 C 29.98 73.10 29.08 73.61 28.18 74.11 C 25.75 72.57 23.27 71.13 20.78 69.73 C 20.81 68.65 20.85 67.58 20.89 66.51 Z" />
    <path d=" M 32.79 60.69 C 36.13 62.65 39.46 64.63 42.86 66.49 C 42.87 67.57 42.88 68.64 42.90 69.72 C 40.48 71.11 38.08 72.55 35.74 74.09 C 34.75 73.54 33.76 72.99 32.77 72.45 C 32.85 68.53 32.85 64.61 32.79 60.69 Z" />
  </symbol>
</svg>
